<svg width="256" height="256" viewBox="0 0 256 256" xmlns="http://www.w3.org/2000/svg">
  <defs>
    <linearGradient id="bg" x1="0" y1="0" x2="1" y2="1">
      <stop offset="0" stop-color="#3f3f46"/>
      <stop offset="1" stop-color="#18181b"/>
    </linearGradient>
    <linearGradient id="green" x1="0" y1="0" x2="0" y2="1">
      <stop offset="0" stop-color="#86efac"/>
      <stop offset="0.55" stop-color="#34d399"/>
      <stop offset="1" stop-color="#22c55e"/>
    </linearGradient>
  </defs>

  <!-- badge -->
  <rect x="0" y="0" width="256" height="256" rx="56" fill="url(#bg)"/>

  <!-- faint folder cue -->
  <g fill="#4ade80" opacity="0.12">
    <path d="M52 84h44l14 16h94a10 10 0 0 1 10 10v70a10 10 0 0 1-10 10H52a10 10 0 0 1-10-10V94a10 10 0 0 1 10-10z"/>
  </g>

  <!-- inverted star (pentagram, point down) -->
  <path fill="url(#green)" stroke="#15803d" stroke-width="2" stroke-linejoin="round"
    d="M128 208 109.2 153.9 51.9 152.7 97.6 118.1 81.0 63.3 128 96 175.0 63.3 158.4 118.1 204.1 152.7 146.8 153.9Z"/>
</svg>
